<?xml version="1.0" encoding="UTF-8" standalone="no"?><svg xmlns="http://www.w3.org/2000/svg" xmlns:xlink="http://www.w3.org/1999/xlink" clip-rule="evenodd" stroke-miterlimit="10" viewBox="0 0 1024 768"><desc>SVG generated by Keynote</desc><defs><linearGradient id="gradSh1.25" x1="0.0" y1="0.0" x2="100.0" y2="0.0" gradientUnits="userSpaceOnUse" gradientTransform="matrix(1.74, -9.29, -11.30, -2.11, 425.1, 848.7)"><stop offset="0.00000" stop-color="#002111"></stop><stop offset="0.00073" stop-color="#002112"></stop><stop offset="0.03006" stop-color="#012016"></stop><stop offset="0.03079" stop-color="#012017"></stop><stop offset="0.05718" stop-color="#011F1B"></stop><stop offset="0.06158" stop-color="#011F1C"></stop><stop offset="0.08944" stop-color="#021E20"></stop><stop offset="0.09238" stop-color="#021E21"></stop><stop offset="0.20821" stop-color="#041A34"></stop><stop offset="0.21481" stop-color="#041A35"></stop><stop offset="0.44575" stop-color="#08135A"></stop><stop offset="0.44648" stop-color="#08125B"></stop><stop offset="0.92082" stop-color="#1003A8"></stop><stop offset="0.92375" stop-color="#1003A9"></stop><stop offset="0.95528" stop-color="#1001AE"></stop><stop offset="0.96041" stop-color="#1001AF"></stop><stop offset="0.98534" stop-color="#1100B3"></stop><stop offset="0.99047" stop-color="#1100B4"></stop><stop offset="1.00000" stop-color="#1100B5"></stop></linearGradient></defs><g transform="matrix(1.00, 0.00, -0.00, -1.00, 0.0, 768.0)"><g><clipPath id="clip0x6180032b6aa0"><path d="M 0.0 768.0 L 1024.0 768.0 L 1024.0 0.0 L 0.0 0.0 Z M 0.0 768.0 "></path></clipPath><g clip-path="url(#clip0x6180032b6aa0)"><path d="M 0.0 768.0 L 1024.0 768.0 L 1024.0 0.0 L 0.0 0.0 Z M 0.0 768.0 " fill="url(#gradSh1.25)"></path></g></g><text xml:space="preserve" font-family="HelveticaNeue-Thin,Helvetica Neue" font-size="100.0" fill="#FEFFFF" transform="matrix(1.00, 0.00, -0.00, -1.00, 315.3, 628.3)">P</text><text xml:space="preserve" font-family="HelveticaNeue-Thin,Helvetica Neue" font-size="100.0" fill="#FEFFFF" transform="matrix(1.00, 0.00, -0.00, -1.00, 372.4, 628.3)">r</text><text xml:space="preserve" font-family="HelveticaNeue-Thin,Helvetica Neue" font-size="100.0" fill="#FEFFFF" transform="matrix(1.00, 0.00, -0.00, -1.00, 399.0, 628.3)">o</text><text xml:space="preserve" font-family="HelveticaNeue-Thin,Helvetica Neue" font-size="100.0" fill="#FEFFFF" transform="matrix(1.00, 0.00, -0.00, -1.00, 452.7, 628.3)">t</text><text xml:space="preserve" font-family="HelveticaNeue-Thin,Helvetica Neue" font-size="100.0" fill="#FEFFFF" transform="matrix(1.00, 0.00, -0.00, -1.00, 477.2, 628.3)">o</text><text xml:space="preserve" font-family="HelveticaNeue-Thin,Helvetica Neue" font-size="100.0" fill="#FEFFFF" transform="matrix(1.00, 0.00, -0.00, -1.00, 530.9, 628.3)">t</text><text xml:space="preserve" font-family="HelveticaNeue-Thin,Helvetica Neue" font-size="100.0" fill="#FEFFFF" transform="matrix(1.00, 0.00, -0.00, -1.00, 556.8, 628.3)">y</text><text xml:space="preserve" font-family="HelveticaNeue-Thin,Helvetica Neue" font-size="100.0" fill="#FEFFFF" transform="matrix(1.00, 0.00, -0.00, -1.00, 601.2, 628.3)">p</text><text xml:space="preserve" font-family="HelveticaNeue-Thin,Helvetica Neue" font-size="100.0" fill="#FEFFFF" transform="matrix(1.00, 0.00, -0.00, -1.00, 656.8, 628.3)">e</text><text xml:space="preserve" font-family="HelveticaNeue-ThinItalic,Helvetica Neue" font-style="italic" font-size="50.0" fill="#FEFFFF" transform="matrix(1.00, 0.00, -0.00, -1.00, 135.9, 365.2)">h</text><text xml:space="preserve" font-family="HelveticaNeue-ThinItalic,Helvetica Neue" font-style="italic" font-size="50.0" fill="#FEFFFF" transform="matrix(1.00, 0.00, -0.00, -1.00, 161.8, 365.2)">t</text><text xml:space="preserve" font-family="HelveticaNeue-ThinItalic,Helvetica Neue" font-style="italic" font-size="50.0" fill="#FEFFFF" transform="matrix(1.00, 0.00, -0.00, -1.00, 174.8, 365.2)">t</text><text xml:space="preserve" font-family="HelveticaNeue-ThinItalic,Helvetica Neue" font-style="italic" font-size="50.0" fill="#FEFFFF" transform="matrix(1.00, 0.00, -0.00, -1.00, 187.7, 365.2)">p</text><text xml:space="preserve" font-family="HelveticaNeue-ThinItalic,Helvetica Neue" font-style="italic" font-size="50.0" fill="#FEFFFF" transform="matrix(1.00, 0.00, -0.00, -1.00, 215.5, 365.2)">s</text><text xml:space="preserve" font-family="HelveticaNeue-ThinItalic,Helvetica Neue" font-style="italic" font-size="50.0" fill="#FEFFFF" transform="matrix(1.00, 0.00, -0.00, -1.00, 238.7, 365.2)">:</text><text xml:space="preserve" font-family="HelveticaNeue-ThinItalic,Helvetica Neue" font-style="italic" font-size="50.0" fill="#FEFFFF" transform="matrix(1.00, 0.00, -0.00, -1.00, 252.6, 365.2)">/</text><text xml:space="preserve" font-family="HelveticaNeue-ThinItalic,Helvetica Neue" font-style="italic" font-size="50.0" fill="#FEFFFF" transform="matrix(1.00, 0.00, -0.00, -1.00, 269.2, 365.2)">/</text><text xml:space="preserve" font-family="HelveticaNeue-ThinItalic,Helvetica Neue" font-style="italic" font-size="50.0" fill="#FEFFFF" transform="matrix(1.00, 0.00, -0.00, -1.00, 285.9, 365.2)">w</text><text xml:space="preserve" font-family="HelveticaNeue-ThinItalic,Helvetica Neue" font-style="italic" font-size="50.0" fill="#FEFFFF" transform="matrix(1.00, 0.00, -0.00, -1.00, 322.1, 365.2)">w</text><text xml:space="preserve" font-family="HelveticaNeue-ThinItalic,Helvetica Neue" font-style="italic" font-size="50.0" fill="#FEFFFF" transform="matrix(1.00, 0.00, -0.00, -1.00, 358.3, 365.2)">w</text><text xml:space="preserve" font-family="HelveticaNeue-ThinItalic,Helvetica Neue" font-style="italic" font-size="50.0" fill="#FEFFFF" transform="matrix(1.00, 0.00, -0.00, -1.00, 392.3, 365.2)">.</text><text xml:space="preserve" font-family="HelveticaNeue-ThinItalic,Helvetica Neue" font-style="italic" font-size="50.0" fill="#FEFFFF" transform="matrix(1.00, 0.00, -0.00, -1.00, 406.2, 365.2)">f</text><text xml:space="preserve" font-family="HelveticaNeue-ThinItalic,Helvetica Neue" font-style="italic" font-size="50.0" fill="#FEFFFF" transform="matrix(1.00, 0.00, -0.00, -1.00, 418.2, 365.2)">l</text><text xml:space="preserve" font-family="HelveticaNeue-ThinItalic,Helvetica Neue" font-style="italic" font-size="50.0" fill="#FEFFFF" transform="matrix(1.00, 0.00, -0.00, -1.00, 426.6, 365.2)">i</text><text xml:space="preserve" font-family="HelveticaNeue-ThinItalic,Helvetica Neue" font-style="italic" font-size="50.0" fill="#FEFFFF" transform="matrix(1.00, 0.00, -0.00, -1.00, 434.9, 365.2)">n</text><text xml:space="preserve" font-family="HelveticaNeue-ThinItalic,Helvetica Neue" font-style="italic" font-size="50.0" fill="#FEFFFF" transform="matrix(1.00, 0.00, -0.00, -1.00, 460.9, 365.2)">t</text><text xml:space="preserve" font-family="HelveticaNeue-ThinItalic,Helvetica Neue" font-style="italic" font-size="50.0" fill="#FEFFFF" transform="matrix(1.00, 0.00, -0.00, -1.00, 473.1, 365.2)">o</text><text xml:space="preserve" font-family="HelveticaNeue-ThinItalic,Helvetica Neue" font-style="italic" font-size="50.0" fill="#FEFFFF" transform="matrix(1.00, 0.00, -0.00, -1.00, 500.0, 365.2)">.</text><text xml:space="preserve" font-family="HelveticaNeue-ThinItalic,Helvetica Neue" font-style="italic" font-size="50.0" fill="#FEFFFF" transform="matrix(1.00, 0.00, -0.00, -1.00, 513.9, 365.2)">c</text><text xml:space="preserve" font-family="HelveticaNeue-ThinItalic,Helvetica Neue" font-style="italic" font-size="50.0" fill="#FEFFFF" transform="matrix(1.00, 0.00, -0.00, -1.00, 539.8, 365.2)">o</text><text xml:space="preserve" font-family="HelveticaNeue-ThinItalic,Helvetica Neue" font-style="italic" font-size="50.0" fill="#FEFFFF" transform="matrix(1.00, 0.00, -0.00, -1.00, 566.7, 365.2)">m</text><text xml:space="preserve" font-family="HelveticaNeue-ThinItalic,Helvetica Neue" font-style="italic" font-size="50.0" fill="#FEFFFF" transform="matrix(1.00, 0.00, -0.00, -1.00, 606.5, 365.2)">/</text><text xml:space="preserve" font-family="HelveticaNeue-ThinItalic,Helvetica Neue" font-style="italic" font-size="50.0" fill="#FEFFFF" transform="matrix(1.00, 0.00, -0.00, -1.00, 623.1, 365.2)">p</text><text xml:space="preserve" font-family="HelveticaNeue-ThinItalic,Helvetica Neue" font-style="italic" font-size="50.0" fill="#FEFFFF" transform="matrix(1.00, 0.00, -0.00, -1.00, 650.9, 365.2)">/</text><text xml:space="preserve" font-family="HelveticaNeue-ThinItalic,Helvetica Neue" font-style="italic" font-size="50.0" fill="#FEFFFF" transform="matrix(1.00, 0.00, -0.00, -1.00, 667.6, 365.2)">6</text><text xml:space="preserve" font-family="HelveticaNeue-ThinItalic,Helvetica Neue" font-style="italic" font-size="50.0" fill="#FEFFFF" transform="matrix(1.00, 0.00, -0.00, -1.00, 695.4, 365.2)">c</text><text xml:space="preserve" font-family="HelveticaNeue-ThinItalic,Helvetica Neue" font-style="italic" font-size="50.0" fill="#FEFFFF" transform="matrix(1.00, 0.00, -0.00, -1.00, 721.3, 365.2)">4</text><text xml:space="preserve" font-family="HelveticaNeue-ThinItalic,Helvetica Neue" font-style="italic" font-size="50.0" fill="#FEFFFF" transform="matrix(1.00, 0.00, -0.00, -1.00, 749.1, 365.2)">4</text><text xml:space="preserve" font-family="HelveticaNeue-ThinItalic,Helvetica Neue" font-style="italic" font-size="50.0" fill="#FEFFFF" transform="matrix(1.00, 0.00, -0.00, -1.00, 776.9, 365.2)">1</text><text xml:space="preserve" font-family="HelveticaNeue-ThinItalic,Helvetica Neue" font-style="italic" font-size="50.0" fill="#FEFFFF" transform="matrix(1.00, 0.00, -0.00, -1.00, 804.7, 365.2)">9</text><text xml:space="preserve" font-family="HelveticaNeue-ThinItalic,Helvetica Neue" font-style="italic" font-size="50.0" fill="#FEFFFF" transform="matrix(1.00, 0.00, -0.00, -1.00, 832.5, 365.2)">7</text><text xml:space="preserve" font-family="HelveticaNeue-ThinItalic,Helvetica Neue" font-style="italic" font-size="50.0" fill="#FEFFFF" transform="matrix(1.00, 0.00, -0.00, -1.00, 860.3, 365.2)">2</text><g><clipPath id="clip0x6180038b7ee0"><path d="M 134.9 359.2 L 888.1 359.2 L 888.1 363.7 L 134.9 363.7 Z M 134.9 359.2 "></path></clipPath><g clip-path="url(#clip0x6180038b7ee0)"><path d="M 68.2 194.6 L 820.4 194.6 " fill="none" stroke="#FEFFFF" stroke-width="2.50" transform="matrix(1.00, 0.00, 0.00, -1.00, 67.7, 556.1)"></path></g></g></g></svg>